<svg xmlns="http://www.w3.org/2000/svg" xmlns:xlink="http://www.w3.org/1999/xlink" x="0px" y="0px" viewBox="0 0 100 100" style="enable-background:new 0 0 100 100;" xml:space="preserve"><path d="M50,6C25.7,6,6,25.7,6,50c0,24.3,19.7,44,44,44s44-19.7,44-44C94,25.7,74.3,6,50,6z M51.7,10c6.8,0.3,13.2,2.3,18.7,5.6 l-7.2,3.6c-0.8,0.4-1.2,1.3-1.1,2.2L65,36.4c0.1,0.6,0.5,1.1,1,1.4L80,45.3c0.7,0.4,1.7,0.2,2.3-0.3l6.2-5.8c1,3.5,1.5,7.1,1.5,10.8 c0,3-0.4,6-1,8.8l-4.5-5.1c-0.4-0.5-1.1-0.7-1.8-0.7c-5.1,1.9-10.3,4.1-15.4,6.1c-0.6,0.3-1.1,0.9-1.2,1.6l-2.4,16.2 c-0.1,0.7,0.3,1.6,0.9,2l7.4,4.6c-5.3,3.5-11.4,5.7-18.1,6.4l3.8-5.7c0.5-0.7,0.4-1.8-0.2-2.4l-12-13c-0.4-0.4-1-0.7-1.6-0.6 c-5.8,1.6-11.6,3.4-17.4,5.1C25.6,73.4,25,74.2,25,75v6.2c-4.8-3.8-8.6-8.7-11.3-14.4h8.2c0.7,0,1.5-0.5,1.8-1.2l7.1-14.9 c0.3-0.6,0.2-1.5-0.2-2.1L20.2,35.7c-0.4-0.5-1.1-0.8-1.8-0.7c-2,0.5-4.1,1.3-6.1,1.9c2.3-6.7,6.3-12.5,11.6-17l2.2,8.4 c0.2,0.7,0.9,1.3,1.7,1.5l15,2.3c0.7,0.1,1.4-0.2,1.8-0.7l11.1-12.8c0.6-0.6,0.7-1.7,0.2-2.4L51.7,10z M47,10.1l4.6,7l-9.5,10.8 l-12.6-1.9l-2.3-8.8C32.9,13.1,39.7,10.6,47,10.1z M74.2,18.2c5.7,4.3,10.1,10.1,12.9,16.8l-6.5,6l-11.8-6.4l-2.4-12.6L74.2,18.2z  M43.4,34.8l-10,14c-0.5,0.7-0.5,1.7,0,2.3l10,14c0.5,0.7,1.5,1,2.2,0.7l18-6c0.9-0.2,1.4-1.1,1.4-2l-1-18c0-0.9-0.7-1.7-1.5-1.8 l-17-4C44.6,33.8,44,34.3,43.4,34.8z M45.8,38.3l14.3,3.3l0.8,15l-15.1,5L37.5,50L45.8,38.3z M17.9,39.2l8.8,11.1l-6,12.6h-8.5 c-1.4-4-2.2-8.4-2.2-12.9c0-2.9,0.4-5.8,0.9-8.5L17.9,39.2z M82.4,57.4l5.2,6c-2.4,6.9-6.7,13-12.2,17.5l-7.7-4.7l2.1-13.7 L82.4,57.4z M43.4,72.3l10.1,10.9L48.9,90c-7.3-0.2-14.1-2.3-19.9-5.9v-7.6L43.4,72.3z"></path></svg>