<svg xmlns="http://www.w3.org/2000/svg" xmlns:xlink="http://www.w3.org/1999/xlink" x="0px" y="0px" viewBox="0 0 100 100" style="enable-background:new 0 0 100 100;" xml:space="preserve"><style type="text/css">	.users{fill:none;}</style><path class="users" d="M42.3,59.3c-1.1-0.2-1.9-1.2-1.9-2.3s0.7-2.1,1.8-2.4c6.5-1.7,11-7.6,11-14.3c0-8.2-6.7-14.8-14.8-14.8 c-8.2,0-14.8,6.7-14.8,14.8c0,6.7,4.5,12.6,11,14.3c1.1,0.3,1.8,1.3,1.8,2.4s-0.8,2.1-1.9,2.3c-9.9,1.9-17,10.6-17,20.7v10.3h42.1 V79.9C59.3,69.9,52.2,61.2,42.3,59.3z"></path><path class="users" d="M65.8,43.6c-1.1-0.2-1.9-1.2-1.9-2.3s0.7-2.1,1.8-2.4c6.5-1.7,11-7.6,11-14.3c0-8.2-6.7-14.8-14.8-14.8 C54.2,9.8,48,15.4,47,22.7c6.1,3,10.4,9.1,10.8,16.2c0,0,0,0,0,0c1.1,0.3,1.8,1.3,1.8,2.4c0,1.1-0.8,2.1-1.9,2.3c0,0-0.1,0-0.1,0 c-0.9,5.3-3.9,9.9-8.3,12.8c7.3,3.4,12.6,10.1,14.3,18.1h19.2V64.3C82.8,54.2,75.6,45.6,65.8,43.6z"></path><path d="M72.7,40.9c5.3-3.6,8.6-9.6,8.6-16.3C81.4,13.8,72.6,5,61.7,5C52,5,44.1,11.9,42.4,21.1c-1.3-0.3-2.7-0.5-4.2-0.5 c-10.8,0-19.6,8.8-19.6,19.6c0,6.6,3.4,12.7,8.6,16.3c-8.9,4.2-14.9,13.2-14.9,23.4v12.7c0,1.3,1.1,2.4,2.4,2.4h46.9 c1.3,0,2.4-1.1,2.4-2.4V79.9c0-0.2,0-0.4,0-0.5h21.1c1.3,0,2.4-1.1,2.4-2.4V64.3C87.6,54.1,81.6,45.1,72.7,40.9z M59.3,90.2H17.2 V79.9c0-10.1,7.2-18.8,17-20.7c1.1-0.2,1.9-1.2,1.9-2.3s-0.7-2.1-1.8-2.4c-6.5-1.7-11-7.6-11-14.3c0-8.2,6.7-14.8,14.8-14.8 c8.2,0,14.8,6.7,14.8,14.8c0,6.7-4.5,12.6-11,14.3c-1.1,0.3-1.8,1.3-1.8,2.4s0.8,2.1,1.9,2.3c9.9,1.9,17,10.6,17,20.7L59.3,90.2 L59.3,90.2z M82.8,74.6H63.6c-1.7-7.9-7-14.6-14.3-18.1c4.4-3,7.4-7.6,8.3-12.8c0,0,0.1,0,0.1,0c1.1-0.2,1.9-1.2,1.9-2.3 c0-1.1-0.7-2.1-1.8-2.4c0,0,0,0,0,0c-0.5-7.1-4.8-13.2-10.8-16.2C48,15.4,54.2,9.8,61.7,9.8c8.2,0,14.8,6.7,14.8,14.8 c0,6.7-4.5,12.6-11,14.3c-1.1,0.3-1.8,1.3-1.8,2.4s0.8,2.1,1.9,2.3c9.9,1.9,17,10.6,17,20.7L82.8,74.6L82.8,74.6z"></path></svg>