<svg xmlns="http://www.w3.org/2000/svg" xmlns:xlink="http://www.w3.org/1999/xlink" x="0px" y="0px" viewBox="0 0 50 50" style="enable-background:new 0 0 50 50;" xml:space="preserve"><rect x="27" y="4" width="11" height="2"></rect><path d="M48,4h-6v2h5c0.6,0,1,0.4,1,1v40c0,0.6-0.4,1-1,1H3c-0.6,0-1-0.4-1-1V7c0-0.6,0.4-1,1-1h5V4H2C0.9,4,0,4.9,0,6v42 c0,1.1,0.9,2,2,2h46c1.1,0,2-0.9,2-2V6C50,4.9,49.1,4,48,4z"></path><rect x="12" y="4" width="11" height="2"></rect><path d="M26,0h-2c-1.7,0-3,1.3-3,3v4c0,1.7,1.3,3,3,3h2c1.7,0,3-1.3,3-3V3C29,1.3,27.7,0,26,0z M27,7c0,0.6-0.4,1-1,1h-2 c-0.6,0-1-0.4-1-1V3c0-0.6,0.4-1,1-1h2c0.6,0,1,0.4,1,1V7z"></path><path d="M11,0H9C7.3,0,6,1.3,6,3v4c0,1.7,1.3,3,3,3h2c1.7,0,3-1.3,3-3V3C14,1.3,12.7,0,11,0z M12,7c0,0.6-0.4,1-1,1H9 C8.4,8,8,7.6,8,7V3c0-0.6,0.4-1,1-1h2c0.6,0,1,0.4,1,1V7z"></path><path d="M41,0h-2c-1.7,0-3,1.3-3,3v4c0,1.7,1.3,3,3,3h2c1.7,0,3-1.3,3-3V3C44,1.3,42.7,0,41,0z M42,7c0,0.6-0.4,1-1,1h-2 c-0.6,0-1-0.4-1-1V3c0-0.6,0.4-1,1-1h2c0.6,0,1,0.4,1,1V7z"></path><rect x="6.5" y="17" width="37" height="2"></rect><rect x="6.5" y="26" width="37" height="2"></rect><rect x="6.5" y="35" width="37" height="2"></rect></svg>