<svg xmlns="http://www.w3.org/2000/svg" x="0px" y="0px" viewBox="0 0 30 50" style="enable-background:new 0 0 30 50;" xml:space="preserve"><g></g><g>	<g>		<path d="M30,3.7l-0.3-2.4C29.6,0.5,28.9-0.1,28,0l0,0L5.7,2.4c-0.4-0.6-1.1-1-2-0.9C2.9,1.6,2.3,2.2,2.1,2.9L0.7,3   C0.3,3.1,0,3.4,0,3.9c0.1,0.4,0.4,0.7,0.8,0.7c0.1,0,0.1,0,0.1,0l1.1-0.1c0.3,2.1,1,7.6,1.2,8.7c0.3,1.6,3.2,4.7,6.2,5.7l0.2,11.3   l-2.2,7c-0.2,0.7-0.3,1.4-0.3,2.1l0.3,8.5c0.1,1.2,1.1,2.2,2.4,2.2c1.3-0.1,2.3-1.1,2.2-2.3l-0.3-8.5c0-0.2,0-0.4,0.1-0.6l1.9-5.8   l-0.1,5.3c0,0.6,0.1,1.3,0.2,1.8l2.3,8.4c0.3,1,1.2,1.7,2.2,1.7c0.2,0,0.4,0,0.6-0.1c1.3-0.3,2-1.5,1.6-2.7l-2.3-8.4   c-0.1-0.2-0.1-0.4-0.1-0.6l0.1-7.3c1.2-11.1,0.5-13.7,0.2-14.3c-0.3-0.7-1-1.3-1.9-1.3h-5.4c-1.2,0-3.8-2.2-4.2-3.2   c-0.2-1-0.8-5.2-1.1-8.2l20.3-2.2l0.3,2.3c0.1,0.8,0.9,1.5,1.8,1.4h0.2C29.5,5.4,30.1,4.6,30,3.7z"></path>		<ellipse cx="14" cy="9.5" rx="4.6" ry="4.5"></ellipse>	</g></g></svg>