<svg xmlns="http://www.w3.org/2000/svg" x="0px" y="0px" viewBox="0 0 50 35" style="enable-background:new 0 0 50 35;" xml:space="preserve"><path d="M13,35c-4.4,0-8.7-1.4-12.7-4.2c-0.3-0.2-0.4-0.7-0.2-1c0.2-0.3,0.7-0.4,1-0.2c6.5,4.4,13.6,5.1,20.7,1.9 c0.7-0.3,1.4-0.6,2.1-1c1.2-0.6,2.4-1.1,3.6-1.6c2.9-1.1,5.5-1.4,8-0.8c2.6,0.6,4.7,1.8,6.5,3l3.3-1.6c-1-0.7-1.9-1.3-2.8-1.9 c-0.3-0.2-0.4-0.7-0.2-1c0.2-0.3,0.6-0.5,1-0.2c0.9,0.6,1.9,1.2,3,2c0.3,0.2,0.6,0.5,0.9,0.8c0.1,0.2,0.2,0.4,0.1,0.6 c0,0.2-0.2,0.4-0.4,0.5l-4.6,2.3c-0.2,0.1-0.5,0.1-0.7,0c-1.7-1.2-3.9-2.5-6.4-3.1c-2.2-0.5-4.6-0.3-7.2,0.8c-1.2,0.5-2.4,1-3.6,1.6 c-0.7,0.3-1.4,0.7-2.1,1C19.3,34.3,16.1,35,13,35z M13.5,27.7c-0.1,0-0.2,0-0.4,0l0,0c-2-0.1-4.9-0.9-6.4-2.2 c-0.2-0.1-0.3-0.3-0.3-0.6c0-0.2,0.1-0.4,0.3-0.6l16.5-13.6c-0.5-0.8-2-2.4-5.6-3.6c-2.8-0.9-6.3-0.8-8.7-0.5c-0.2,0-0.4,0-0.5-0.2 C8.1,6.4,8,6.2,8,6L7.9,3.7c0-0.4,0.2-0.7,0.5-0.8c2.1-0.6,9.5-1.7,15.3,0.3c4.7,1.6,9.1,5,11.7,9c3.3,5,4.5,10,4.5,10.2 c0.1,0.3,0,0.6-0.3,0.7c-0.2,0.2-0.5,0.2-0.8,0.1c-5.7-3.1-14.1,0.7-15.7,1.5C20.3,26.1,17.1,27.7,13.5,27.7z M43.7,12.9 C43.6,12.9,43.6,12.9,43.7,12.9L43.7,12.9c-3.6,0-6.3-2.9-6.3-6.5c0-3.6,2.8-6.4,6.3-6.4c0,0,0,0,0,0c1.7,0,3.3,0.7,4.5,1.9 C49.4,3.2,50,4.8,50,6.5C49.9,10,47.1,12.9,43.7,12.9z"></path></svg>