<svg xmlns="http://www.w3.org/2000/svg" xmlns:xlink="http://www.w3.org/1999/xlink" x="0px" y="0px" viewBox="0 0 80 80" style="enable-background:new 0 0 80 80;" xml:space="preserve"><path d="M35.1,53.1l16.2-6.7c0.3-0.1,0.6-0.3,0.8-0.4l0.3-0.2l0.5-0.5c0.7-0.7,1-1.7,1.1-2.6v-0.4c0-0.8-0.3-1.7-0.8-2.4L37.6,24.2 l7-2.9l13,5.4c2.2,0.9,4.6-0.1,5.5-2.3l0,0c0.9-2.2-0.1-4.6-2.3-5.5L46.5,13c-1.1-0.6-2.4-0.7-3.6-0.2l-14.3,5.9 c-0.5,0.2-1.8,1.2-1.8,1.2c-1.1,1.2-1.4,2.9-0.8,4.5l0,0c0.3,0.6,0.7,1.2,1.2,1.6l15,15l-14.3,5.9c-0.5,0.2-1,0.5-1.4,0.9 c-1.2,1.2-1.6,3-0.9,4.6L34,72.6c0.9,2.2,3.4,3.2,5.5,2.3l0,0c2.2-0.9,3.2-3.4,2.3-5.5L35.1,53.1z"></path><path d="M77.5,61.2l-18.6-7.7l-3.3-7.9c-0.3,0.6-0.7,1.1-1.2,1.6c-0.6,0.6-1.3,1.1-2.2,1.4l-3.9,1.6l3.3,8.1c0.2,0.5,0.6,1,0.9,1.4 c0.4,0.4,0.9,0.7,1.4,0.9L74.2,69c2.2,0.9,4.6-0.1,5.5-2.3l0,0C80.7,64.6,79.6,62.1,77.5,61.2z"></path><path d="M25.3,27.5c-1.8-1.8-2.4-4.4-1.7-6.7l-7.2,3l-9.1-9.1c-1.7-1.7-4.3-1.7-6,0l0,0c-1.7,1.7-1.7,4.3,0,6 c0,0,11.4,11.4,11.6,11.5c1.4,1,3.2,1.1,4.7,0.3l8.9-3.7L25.3,27.5z"></path><ellipse cx="19.2" cy="12" rx="7.3" ry="7.3"></ellipse></svg>