<svg xmlns="http://www.w3.org/2000/svg" x="0px" y="0px" viewBox="0 0 50 47" style="enable-background:new 0 0 50 47;" xml:space="preserve"><g>	<ellipse cx="25.1" cy="4.3" rx="4.3" ry="4.3"></ellipse>	<ellipse cx="46" cy="31.5" rx="2" ry="2.1"></ellipse>	<path d="M47.5,1.8C47.5,1.8,47.5,1.8,47.5,1.8c-0.6-0.3-1.1-0.4-1.7-0.4c-2.1,0-4.2,1.5-5.2,3.8c0,0.1-0.7,1.3-0.8,2.9  c-0.1,0.8,0,1.5,0.1,2.2c0,0.3,0,0.6,0.1,0.9c0.1,1.5,0.1,2.3-0.1,3.6c-0.2,1.1-0.4,2.2-0.8,3.5l-0.1,0.2l-6.8-2l-7.6-6.6  c-0.1-0.1-0.2-0.1-0.3-0.2C23.8,9.3,23.4,9,23,8.8c-2.3-1.2-5.1-0.2-6.2,2.1l-5.2,10.5c0,0-0.1,0.1-0.1,0.1  c-0.1,0.2-0.2,0.5-0.3,0.8c0,0.1-0.1,0.2-0.1,0.3c-0.1,0.3-0.2,0.6-0.2,0.9l-1,10.8l-9.2,8.3c-0.7,0.6-0.8,1.7-0.3,2.5  c0.6,0.8,1.8,1,2.6,0.4l10.8-8c0.4-0.3,0.7-0.8,0.9-1.4l0.1-0.3l1.6-7.7l8.2,5l6,12.7c0.4,0.9,1.4,1.3,2.3,1c1-0.4,1.5-1.4,1.1-2.4  l-5.1-14.1c-0.1-0.4-0.4-0.8-0.8-1l-0.2-0.1l-8.4-6.1l1.4-2l4.8,3.6c0.3,0.2,0.7,0.4,1.1,0.4l8.7,0.5l-0.8,1.7l1.6,0.7l1.1-2.3  l0.2,0c0,0,0.1,0,0.1,0c1.1,0,2-0.8,2-1.9c0-0.4-0.1-0.8-0.2-1.1c0.6-0.2,1.1-0.7,1.3-1.4c0.2-0.7,0-1.5-0.5-2l0.1-0.2  c0.7-1.2,1.4-2.1,2.1-2.9c0.8-1,1.4-1.5,2.6-2.4c0.2-0.2,0.5-0.3,0.7-0.5c0.5-0.4,1.1-0.8,1.7-1.3c1.1-1.1,1.7-2.4,1.7-2.4  C50.7,6.4,49.9,3,47.5,1.8z M23.3,17.7l1.4-1.9c0-0.1,0.1-0.1,0.1-0.2l4.9,4.3c0.2,0.2,0.5,0.3,0.7,0.4l3.5,1.1l-6.3-0.3L23.3,17.7  z M47.7,8.7c0,0-0.5,1.1-1.3,1.9c-0.5,0.5-0.9,0.8-1.4,1.2c-0.2,0.2-0.5,0.3-0.7,0.5c-1.2,0.9-1.9,1.4-2.7,2.4  c0.2-1.3,0.2-2.1,0.1-3.6c0-0.3,0-0.6-0.1-0.9c-0.1-0.6-0.1-1.2-0.1-1.9C41.6,7.1,42.1,6,42.1,6c0.8-1.7,2.2-2.8,3.6-2.8  c0.3,0,0.7,0.1,1,0.2c0,0,0,0,0,0C48.3,4.2,48.7,6.5,47.7,8.7z"></path></g></svg>