<svg xmlns="http://www.w3.org/2000/svg" xmlns:xlink="http://www.w3.org/1999/xlink" x="0px" y="0px" viewBox="0 0 50 44" style="enable-background:new 0 0 50 44;" xml:space="preserve"><g>	<path d="M23.6,23.1l6.9-7l2.1,4.3c0.3,0.6,0.9,1,1.6,1.1l8.1,1.1c0.1,0,0.2,0,0.3,0c1,0,1.9-0.8,2.1-1.8c0.2-1.1-0.6-2.2-1.8-2.3  l-7-0.9l-3.1-6.4c-0.1-1.5-0.8-2.9-2.1-3.8c-2.3-1.7-5.6-1.2-7.3,1.2l-6.9,9.6c-1.2,1.7-1.1,4.1,0.5,5.6c0.6,0.6,1.4,1,2.3,1.2  c0,0,0,0,0,0c2.7,1.6,4.2,3.5,4.5,5.6c0.6,4.2-3.4,8.4-3.4,8.4c-0.8,0.8-0.8,2.1,0.1,2.9c0.8,0.8,2.1,0.8,2.9-0.1  c0.2-0.2,5.4-5.7,4.5-11.9C27.3,27.4,26,25.1,23.6,23.1z"></path>	<path d="M40.3,24.6c-5.4,0-9.7,4.3-9.7,9.7c0,5.3,4.3,9.7,9.7,9.7c5.4,0,9.7-4.3,9.7-9.7C50,29,45.7,24.6,40.3,24.6z M40.3,40.8  c-3.6,0-6.5-2.9-6.5-6.5c0-3.6,2.9-6.5,6.5-6.5c3.6,0,6.5,2.9,6.5,6.5C46.8,37.9,43.9,40.8,40.3,40.8z"></path>	<path d="M9.7,24.6C4.3,24.6,0,29,0,34.3S4.3,44,9.7,44s9.7-4.3,9.7-9.7C19.4,29,15.1,24.6,9.7,24.6z M9.7,40.8  c-3.6,0-6.5-2.9-6.5-6.5c0-3.6,2.9-6.5,6.5-6.5c3.6,0,6.5,2.9,6.5,6.5C16.2,37.9,13.3,40.8,9.7,40.8z"></path>	<ellipse cx="36.8" cy="4.3" rx="4.3" ry="4.3"></ellipse></g></svg>